# xmcd
#
# Track frame offsets: 
#        150
#        12575
#        28110
#        43705
#        61010
#        75297
#        89652
#        105735
#        119042
#        134547
#        151500
#
# Disc length: 2289 seconds
#
# Revision: 2
# Processed by: cddbd v1.4PL0 Copyright (c) Steve Scherf et al.
# Submitted via: ExactAudioCopy v0.90b3
#
DISCID=8808ef0b
DTITLE=Dolly Parton - Eagle When She Files
DYEAR=1991
DGENRE=Country
TTITLE0=If You Need Me
TTITLE1=Rockin' Years ( w- Ricky Van Shelton )
TTITLE2=Country Road
TTITLE3=Silver And Gold
TTITLE4=Eagle When She Flies
TTITLE5=Best Woman Wins ( w- Lorrie Morgan )
TTITLE6=What A Heartache
TTITLE7=Runaway Feelin'
TTITLE8=Dreams Do Come True
TTITLE9=Family
TTITLE10=Wildest Dreams
EXTD=
EXTT0=
EXTT1=
EXTT2=
EXTT3=
EXTT4=
EXTT5=
EXTT6=
EXTT7=
EXTT8=
EXTT9=
EXTT10=
PLAYORDER=
